<svg width="111" height="29" viewBox="0 0 111 29" fill="none" xmlns="http://www.w3.org/2000/svg">
<rect x="7" width="7" height="7" fill="#5DCBAD"/>
<rect y="7" width="7" height="7" fill="#5DCBAD"/>
<rect x="7" y="14" width="7" height="8" fill="#5DCBAD"/>
<rect y="22" width="7" height="7" fill="#5DCBAD"/>
<path d="M24.328 20V8.912H31.336V10.624H26.344V13.456H30.776V15.168H26.344V20H24.328ZM39.5491 19.744C39.1758 19.84 38.6905 19.936 38.0931 20.032C37.4958 20.1387 36.8398 20.192 36.1251 20.192C35.4531 20.192 34.8878 20.096 34.4291 19.904C33.9811 19.712 33.6185 19.4453 33.3411 19.104C33.0745 18.7627 32.8825 18.3573 32.7651 17.888C32.6478 17.408 32.5891 16.8853 32.5891 16.32V11.632H34.5251V16.016C34.5251 16.912 34.6531 17.552 34.9091 17.936C35.1758 18.32 35.6345 18.512 36.2851 18.512C36.5198 18.512 36.7651 18.5013 37.0211 18.48C37.2878 18.4587 37.4851 18.432 37.6131 18.4V11.632H39.5491V19.744ZM41.9173 9.424L43.8533 9.104V11.632H46.8293V13.248H43.8533V16.656C43.8533 17.328 43.9599 17.808 44.1733 18.096C44.3866 18.384 44.7493 18.528 45.2613 18.528C45.6133 18.528 45.9226 18.4907 46.1893 18.416C46.4666 18.3413 46.6853 18.272 46.8453 18.208L47.1653 19.744C46.9413 19.84 46.6479 19.936 46.2853 20.032C45.9226 20.1387 45.4959 20.192 45.0052 20.192C44.4079 20.192 43.9066 20.112 43.5013 19.952C43.1066 19.792 42.7919 19.5627 42.5573 19.264C42.3226 18.9547 42.1573 18.5867 42.0613 18.16C41.9653 17.7227 41.9173 17.2267 41.9173 16.672V9.424ZM55.5648 19.744C55.1914 19.84 54.7061 19.936 54.1088 20.032C53.5114 20.1387 52.8554 20.192 52.1408 20.192C51.4688 20.192 50.9034 20.096 50.4448 19.904C49.9968 19.712 49.6341 19.4453 49.3568 19.104C49.0901 18.7627 48.8981 18.3573 48.7808 17.888C48.6634 17.408 48.6048 16.8853 48.6048 16.32V11.632H50.5408V16.016C50.5408 16.912 50.6688 17.552 50.9248 17.936C51.1914 18.32 51.6501 18.512 52.3008 18.512C52.5354 18.512 52.7808 18.5013 53.0368 18.48C53.3034 18.4587 53.5008 18.432 53.6288 18.4V11.632H55.5648V19.744ZM62.7969 13.376C62.6369 13.3227 62.4129 13.2693 62.1249 13.216C61.8475 13.152 61.5222 13.12 61.1489 13.12C60.9355 13.12 60.7062 13.1413 60.4609 13.184C60.2262 13.2267 60.0609 13.264 59.9649 13.296V20H58.0289V12.032C58.4022 11.8933 58.8662 11.7653 59.4209 11.648C59.9862 11.52 60.6102 11.456 61.2929 11.456C61.4209 11.456 61.5702 11.4667 61.7409 11.488C61.9115 11.4987 62.0822 11.52 62.2529 11.552C62.4235 11.5733 62.5889 11.6053 62.7489 11.648C62.9089 11.68 63.0369 11.712 63.1329 11.744L62.7969 13.376ZM64.018 15.856C64.018 15.12 64.1247 14.4747 64.338 13.92C64.562 13.3653 64.8553 12.9067 65.218 12.544C65.5807 12.1707 65.9967 11.8933 66.466 11.712C66.9353 11.52 67.4153 11.424 67.906 11.424C69.058 11.424 69.954 11.7813 70.594 12.496C71.2447 13.2107 71.57 14.2773 71.57 15.696C71.57 15.8027 71.5647 15.9253 71.554 16.064C71.554 16.192 71.5487 16.3093 71.538 16.416H66.018C66.0713 17.088 66.306 17.6107 66.722 17.984C67.1487 18.3467 67.762 18.528 68.562 18.528C69.0313 18.528 69.458 18.4853 69.842 18.4C70.2367 18.3147 70.546 18.224 70.77 18.128L71.026 19.712C70.9193 19.7653 70.77 19.824 70.578 19.888C70.3967 19.9413 70.1833 19.9893 69.938 20.032C69.7033 20.0853 69.4473 20.128 69.17 20.16C68.8927 20.192 68.61 20.208 68.322 20.208C67.586 20.208 66.946 20.1013 66.402 19.888C65.858 19.664 65.41 19.36 65.058 18.976C64.706 18.5813 64.4447 18.1227 64.274 17.6C64.1033 17.0667 64.018 16.4853 64.018 15.856ZM69.634 14.992C69.634 14.7253 69.5967 14.4747 69.522 14.24C69.4473 13.9947 69.3353 13.7867 69.186 13.616C69.0473 13.4347 68.8713 13.296 68.658 13.2C68.4553 13.0933 68.21 13.04 67.922 13.04C67.6233 13.04 67.362 13.0987 67.138 13.216C66.914 13.3227 66.722 13.4667 66.562 13.648C66.4127 13.8293 66.2953 14.0373 66.21 14.272C66.1247 14.5067 66.066 14.7467 66.034 14.992H69.634ZM75.7186 18.608C76.2306 18.608 76.604 18.5493 76.8386 18.432C77.0733 18.304 77.1906 18.0907 77.1906 17.792C77.1906 17.5147 77.0626 17.2853 76.8066 17.104C76.5613 16.9227 76.1506 16.7253 75.5746 16.512C75.2226 16.384 74.8973 16.2507 74.5986 16.112C74.3106 15.9627 74.06 15.792 73.8466 15.6C73.6333 15.408 73.4626 15.1787 73.3346 14.912C73.2173 14.6347 73.1586 14.2987 73.1586 13.904C73.1586 13.136 73.4413 12.5333 74.0066 12.096C74.572 11.648 75.34 11.424 76.3106 11.424C76.8013 11.424 77.2706 11.472 77.7186 11.568C78.1666 11.6533 78.5026 11.7387 78.7266 11.824L78.3746 13.392C78.1613 13.296 77.8893 13.2107 77.5586 13.136C77.228 13.0507 76.844 13.008 76.4066 13.008C76.012 13.008 75.692 13.0773 75.4466 13.216C75.2013 13.344 75.0786 13.5467 75.0786 13.824C75.0786 13.9627 75.1 14.0853 75.1426 14.192C75.196 14.2987 75.2813 14.4 75.3986 14.496C75.516 14.5813 75.6706 14.672 75.8626 14.768C76.0546 14.8533 76.2893 14.944 76.5666 15.04C77.0253 15.2107 77.4146 15.3813 77.7346 15.552C78.0546 15.712 78.316 15.8987 78.5186 16.112C78.732 16.3147 78.8866 16.5493 78.9826 16.816C79.0786 17.0827 79.1266 17.4027 79.1266 17.776C79.1266 18.576 78.828 19.184 78.2306 19.6C77.644 20.0053 76.8013 20.208 75.7026 20.208C74.9666 20.208 74.3746 20.144 73.9266 20.016C73.4786 19.8987 73.164 19.8027 72.9826 19.728L73.3186 18.112C73.6066 18.2293 73.948 18.3413 74.3426 18.448C74.748 18.5547 75.2066 18.608 75.7186 18.608ZM85.9271 14.736C85.6818 15.6747 85.4151 16.592 85.1271 17.488C84.8498 18.3733 84.5725 19.2107 84.2951 20H82.7111C82.4978 19.5093 82.2738 18.9493 82.0391 18.32C81.8045 17.6907 81.5698 17.0187 81.3351 16.304C81.1005 15.5893 80.8658 14.8373 80.6311 14.048C80.3965 13.2587 80.1671 12.4533 79.9431 11.632H81.9911C82.0871 12.08 82.1991 12.5653 82.3271 13.088C82.4551 13.6 82.5885 14.128 82.7271 14.672C82.8658 15.2053 83.0098 15.728 83.1591 16.24C83.3085 16.752 83.4578 17.2213 83.6071 17.648C83.7671 17.1573 83.9218 16.6507 84.0711 16.128C84.2311 15.6053 84.3805 15.0827 84.5191 14.56C84.6578 14.0373 84.7858 13.5307 84.9031 13.04C85.0311 12.5387 85.1431 12.0693 85.2391 11.632H86.7271C86.8231 12.0693 86.9298 12.5387 87.0471 13.04C87.1645 13.5307 87.2871 14.0373 87.4151 14.56C87.5538 15.0827 87.6978 15.6053 87.8471 16.128C88.0071 16.6507 88.1671 17.1573 88.3271 17.648C88.4658 17.2213 88.6098 16.752 88.7591 16.24C88.9085 15.728 89.0525 15.2053 89.1911 14.672C89.3405 14.128 89.4791 13.6 89.6071 13.088C89.7351 12.5653 89.8471 12.08 89.9431 11.632H91.9431C91.7191 12.4533 91.4898 13.2587 91.2551 14.048C91.0205 14.8373 90.7858 15.5893 90.5511 16.304C90.3165 17.0187 90.0818 17.6907 89.8471 18.32C89.6125 18.9493 89.3831 19.5093 89.1591 20H87.5911C87.3138 19.2107 87.0258 18.3733 86.7271 17.488C86.4391 16.592 86.1725 15.6747 85.9271 14.736ZM96.3635 18.64C96.9608 18.64 97.4142 18.608 97.7235 18.544V16.4C97.6168 16.368 97.4622 16.336 97.2595 16.304C97.0568 16.272 96.8328 16.256 96.5875 16.256C96.3742 16.256 96.1555 16.272 95.9315 16.304C95.7182 16.336 95.5208 16.3947 95.3395 16.48C95.1688 16.5653 95.0302 16.688 94.9235 16.848C94.8168 16.9973 94.7635 17.1893 94.7635 17.424C94.7635 17.8827 94.9075 18.2027 95.1955 18.384C95.4835 18.5547 95.8728 18.64 96.3635 18.64ZM96.2035 11.424C96.8435 11.424 97.3822 11.504 97.8195 11.664C98.2568 11.824 98.6035 12.048 98.8595 12.336C99.1262 12.624 99.3128 12.976 99.4195 13.392C99.5368 13.7973 99.5955 14.2453 99.5955 14.736V19.808C99.2968 19.872 98.8435 19.9467 98.2355 20.032C97.6382 20.128 96.9608 20.176 96.2035 20.176C95.7022 20.176 95.2435 20.128 94.8275 20.032C94.4115 19.936 94.0542 19.7813 93.7555 19.568C93.4675 19.3547 93.2382 19.0773 93.0675 18.736C92.9075 18.3947 92.8275 17.9733 92.8275 17.472C92.8275 16.992 92.9182 16.5867 93.0995 16.256C93.2915 15.9253 93.5475 15.6587 93.8675 15.456C94.1875 15.2427 94.5555 15.0933 94.9715 15.008C95.3982 14.912 95.8408 14.864 96.2995 14.864C96.5128 14.864 96.7368 14.88 96.9715 14.912C97.2062 14.9333 97.4568 14.976 97.7235 15.04V14.72C97.7235 14.496 97.6968 14.2827 97.6435 14.08C97.5902 13.8773 97.4942 13.7013 97.3555 13.552C97.2275 13.392 97.0515 13.2693 96.8275 13.184C96.6142 13.0987 96.3422 13.056 96.0115 13.056C95.5635 13.056 95.1528 13.088 94.7795 13.152C94.4062 13.216 94.1022 13.2907 93.8675 13.376L93.6275 11.808C93.8728 11.7227 94.2302 11.6373 94.6995 11.552C95.1688 11.4667 95.6702 11.424 96.2035 11.424ZM107.518 15.856C107.518 14.992 107.321 14.32 106.926 13.84C106.542 13.36 105.918 13.12 105.054 13.12C104.873 13.12 104.681 13.1307 104.478 13.152C104.286 13.1627 104.094 13.1947 103.902 13.248V18.032C104.073 18.1493 104.297 18.2613 104.574 18.368C104.862 18.464 105.166 18.512 105.486 18.512C106.19 18.512 106.702 18.272 107.022 17.792C107.353 17.312 107.518 16.6667 107.518 15.856ZM109.502 15.824C109.502 16.464 109.417 17.0507 109.246 17.584C109.086 18.1173 108.852 18.576 108.542 18.96C108.233 19.344 107.844 19.6427 107.374 19.856C106.916 20.0693 106.393 20.176 105.806 20.176C105.412 20.176 105.049 20.128 104.718 20.032C104.388 19.936 104.116 19.8293 103.902 19.712V22.96H101.966V11.904C102.361 11.7973 102.846 11.696 103.422 11.6C103.998 11.504 104.606 11.456 105.246 11.456C105.908 11.456 106.5 11.5573 107.022 11.76C107.545 11.9627 107.988 12.256 108.35 12.64C108.724 13.0133 109.006 13.472 109.198 14.016C109.401 14.5493 109.502 15.152 109.502 15.824Z" fill="white"/>
</svg>
